<svg width="22" height="18" viewBox="0 0 22 18" fill="none" xmlns="http://www.w3.org/2000/svg">
<path d="M19.6429 0.285713H1.78571C0.803571 0.285713 0 1.08929 0 2.07143V15.6429C0 16.625 0.803571 17.4286 1.78571 17.4286H19.6429C20.625 17.4286 21.4286 16.625 21.4286 15.6429V2.07143C21.4286 1.08929 20.625 0.285713 19.6429 0.285713ZM1.78571 1.71429H19.6429C19.8326 1.71429 20 1.8817 20 2.07143V4.57143H1.42857V2.07143C1.42857 1.8817 1.59598 1.71429 1.78571 1.71429ZM19.6429 16H1.78571C1.59598 16 1.42857 15.8326 1.42857 15.6429V8.85714H20V15.6429C20 15.8326 19.8326 16 19.6429 16ZM2.85714 14.5714H5.71429V13.1429H2.85714V14.5714ZM7.14286 14.5714H11.4286V13.1429H7.14286V14.5714Z" fill="#333333"/>
</svg>
