<svg width="19" height="19" viewBox="0 0 19 19" fill="none" xmlns="http://www.w3.org/2000/svg">
<path d="M16.0714 3.85714C16.0714 4.44866 15.5915 4.92857 15 4.92857C14.4085 4.92857 13.9286 4.44866 13.9286 3.85714C13.9286 3.26562 14.4085 2.78571 15 2.78571C15.5915 2.78571 16.0714 3.26562 16.0714 3.85714ZM18.5714 0.642856C18.5714 0.441963 18.3929 0.285713 18.192 0.285713C14.308 0.285713 12.1763 1.17857 9.38616 3.95759C8.75 4.60491 8.09152 5.34152 7.42188 6.13393L3.19196 6.35714C3.08036 6.3683 2.96875 6.43527 2.90179 6.53571L0.401786 10.8214C0.323661 10.9554 0.345982 11.1339 0.457589 11.2567L1.17188 11.971C1.23884 12.0379 1.33929 12.0714 1.42857 12.0714C1.46205 12.0714 1.49554 12.0714 1.52902 12.0603L4.60938 11.1116L7.74554 14.2478L6.79688 17.3281C6.76339 17.4509 6.79688 17.5848 6.88616 17.6853L7.60045 18.3996C7.67857 18.4665 7.76786 18.5 7.85714 18.5C7.92411 18.5 7.97991 18.4888 8.03571 18.4554L12.3214 15.9554C12.4219 15.8884 12.4888 15.7768 12.5 15.6652L12.7232 11.4353C13.5156 10.7656 14.2522 10.1071 14.8996 9.47098C17.5446 6.81473 18.5714 4.34821 18.5714 0.642856Z" fill="#333333"/>
</svg>
